<?xml version="1.0" standalone="no"?><!DOCTYPE svg PUBLIC "-//W3C//DTD SVG 1.1//EN" "http://www.w3.org/Graphics/SVG/1.1/DTD/svg11.dtd"><svg t="1486172668307" class="icon" style="" viewBox="0 0 1024 1024" version="1.1" xmlns="http://www.w3.org/2000/svg" p-id="5316" xmlns:xlink="http://www.w3.org/1999/xlink" width="200" height="200"><defs><style type="text/css"></style></defs><path d="M786.056355 97.315045c-15.929564-1.555502-30.836796-2.311762-44.821983-2.311762-112.039095 0-165.755068 48.417034-227.280273 121.734373C452.430941 143.420317 398.686314 95.003283 286.661546 95.003283c-13.983141 0-28.889349 0.75626-44.82096 2.311762-96.952777 9.469116-209.066577 98.235042-222.71815 268.339375l0 56.616164c12.716225 162.809849 135.612108 295.705969 494.832686 547.659362C873.16342 717.976553 996.09205 585.080432 1008.806229 422.26956L1008.806229 365.655443C995.124978 195.550087 883.010155 106.784161 786.056355 97.315045zM300.073654 191.446428c-8.471344 0.049121-16.948827 0.43902-25.370026 1.383578-1.16765 0.13099-2.334276 0.267096-3.499879 0.414459-0.097219 0.014327-0.179087 0.025584-0.290633 0.041958-1.719239 0.256862-3.438477 0.519865-5.151576 0.819708-3.746507 0.655971-7.482781 1.380508-11.186308 2.248314-7.014084 1.644534-13.960627 3.612448-20.740362 6.058269-1.804177 0.650855-3.604261 1.31399-5.385924 2.023175-0.444137 0.177041-2.158258 0.904647-2.830604 1.184023-2.588068 1.148206-5.159763 2.332229-7.685406 3.613471-5.686791 2.884841-11.241569 6.039849-16.566092 9.553031-2.567601 1.694678-5.105525 3.437454-7.57693 5.272332-0.533169 0.396039-1.062244 0.797195-1.592342 1.196304-0.01842 0.014327-0.028654 0.02149-0.047074 0.037864-1.037683 0.828919-2.072297 1.661931-3.089513 2.514386-8.537862 7.161447-16.423845 15.094506-23.473747 23.729586-0.73477 0.900554-1.46647 1.804177-2.185889 2.718034-1.044847 1.386648-2.080483 2.779436-3.087466 4.193714-2.039549 2.865398-4.02179 5.773776-5.907836 8.742533-3.740367 5.887369-7.217732 11.942568-10.368646 18.166621-1.541175 3.043462-3.029135 6.114554-4.432156 9.224534-0.574103 1.273055-1.138996 2.550204-1.691608 3.832469-0.188298 0.458464-0.378642 0.915904-0.563869 1.375391-2.117324 5.261075-4.071935 10.588668-5.815734 15.985849-2.611605 8.079398-4.848662 16.288762-6.54948 24.608649-0.484048 2.367023-0.933301 4.742233-1.311943 7.1287-0.637551 4.013603 0.008187-0.133036 0.16783-1.4634-1.012099 8.443713-6.332529 15.606184-15.606184 15.606184-7.739644 0-16.62033-7.142004-15.606184-15.606184 3.213339-26.808865 12.509508-53.266719 24.825601-77.164136 14.97989-29.062296 36.279005-54.684068 63.058192-73.568062 34.827885-24.560551 77.353457-34.835049 119.560764-35.082701C320.206142 160.116375 320.194885 191.328742 300.073654 191.446428z" p-id="5317" fill="#d81e06"></path></svg>