<?xml version="1.0" standalone="no"?><!DOCTYPE svg PUBLIC "-//W3C//DTD SVG 1.1//EN" "http://www.w3.org/Graphics/SVG/1.1/DTD/svg11.dtd"><svg t="1487652045707" class="icon" style="" viewBox="0 0 1024 1024" version="1.1" xmlns="http://www.w3.org/2000/svg" p-id="23640" xmlns:xlink="http://www.w3.org/1999/xlink" width="200" height="200"><defs><style type="text/css"></style></defs><path d="M512 1024C229.220174 1024 0 794.757565 0 511.977739 0 229.220174 229.220174-0.022261 512-0.022261 794.757565-0.022261 1024 229.220174 1024 511.977739 1024 794.757565 794.757565 1024 512 1024ZM512 66.782609C266.106435 66.782609 66.782609 266.106435 66.782609 511.977739 66.782609 757.871304 266.106435 957.217391 512 957.217391 757.893565 957.217391 957.217391 757.871304 957.217391 511.977739 957.217391 266.106435 757.893565 66.782609 512 66.782609ZM701.217391 734.608696C682.785391 734.608696 667.826087 719.649391 667.826087 701.19513L667.826087 322.782609C667.826087 304.350609 682.785391 289.391304 701.217391 289.391304 719.649391 289.391304 734.608696 304.350609 734.608696 322.782609L734.608696 701.19513C734.608696 719.649391 719.649391 734.608696 701.217391 734.608696ZM627.778783 542.007652 366.83687 731.225043C358.021565 736.300522 348.026435 736.545391 339.144348 733.406609 323.628522 730.534957 311.652174 717.55687 311.652174 701.19513L311.652174 322.782609C311.652174 321.625043 312.186435 320.645565 312.297739 319.532522 312.409043 317.19513 313.010087 314.991304 313.677913 312.698435 314.167652 311.206957 314.546087 309.76 315.236174 308.357565 315.748174 307.266783 315.770435 306.064696 316.438261 305.018435 317.417739 303.37113 318.998261 302.34713 320.222609 300.944696 321.046261 300.032 321.80313 299.141565 322.693565 298.317913 325.008696 296.225391 327.457391 294.600348 330.217739 293.242435 331.330783 292.685913 332.377043 292.151652 333.55687 291.706435 336.829217 290.482087 340.168348 289.881043 343.685565 289.658435 344.175304 289.636174 344.553739 289.391304 345.043478 289.391304 345.288348 289.391304 345.488696 289.52487 345.733565 289.52487 351.565913 289.480348 357.442783 290.348522 362.852174 293.286957L628.869565 474.779826C642.493217 482.192696 648.013913 497.062957 644.096 510.70887 644.964174 523.041391 639.198609 535.396174 627.778783 542.007652ZM378.434783 382.575304 378.434783 640.75687 561.886609 507.725913 378.434783 382.575304Z" p-id="23641"></path></svg>