<?xml version="1.0" standalone="no"?><!DOCTYPE svg PUBLIC "-//W3C//DTD SVG 1.1//EN" "http://www.w3.org/Graphics/SVG/1.1/DTD/svg11.dtd"><svg t="1487651914467" class="icon" style="" viewBox="0 0 1024 1024" version="1.1" xmlns="http://www.w3.org/2000/svg" p-id="21018" xmlns:xlink="http://www.w3.org/1999/xlink" width="200" height="200"><defs><style type="text/css"></style></defs><path d="M958.708971 630.01995L840.671625 511.997953l118.021997-118.0353-36.420491-36.419467-118.020974 118.036323-118.036323-118.018927-36.419468 36.419468 118.037347 118.020973-118.020974 118.0353 36.420491 36.420491 118.018927-118.037346 118.039393 118.018927 36.417421-36.418445zM552.664142 118.689193c-18.745946-7.91425-41.48074-4.417613-56.591903 8.658193L267.476891 324.980559h-129.60173c-40.022529 0-72.585155 31.089066-72.585156 69.300343v235.329726c0 38.210253 32.562627 69.292156 72.585156 69.292156H267.475867l228.595349 197.624986c9.677407 8.370645 22.183232 12.979616 35.262108 12.979616a54.481845 54.481845 0 0 0 21.328771-4.313236c19.014052-8.032954 31.290657-26.046213 31.290657-45.88505V164.574243c0.002047-19.821441-12.274558-37.826514-31.28861-45.88505zM531.790742 860.132862l-0.454348 0.207731-244.004293-210.604602H137.876184c-11.618619 0-21.074991-9.026584-21.074991-20.126386v-235.329727c0-11.099802 9.457396-20.133549 21.074991-20.133549h149.455917L530.649755 163.789367l1.793856 0.783852-0.652869 695.559643z" fill="#2c2c2c" p-id="21019"></path></svg>