<?xml version="1.0" standalone="no"?><!DOCTYPE svg PUBLIC "-//W3C//DTD SVG 1.1//EN" "http://www.w3.org/Graphics/SVG/1.1/DTD/svg11.dtd"><svg t="1487651760177" class="icon" style="" viewBox="0 0 1024 1024" version="1.1" xmlns="http://www.w3.org/2000/svg" p-id="17142" xmlns:xlink="http://www.w3.org/1999/xlink" width="200" height="200"><defs><style type="text/css"></style></defs><path d="M540.2893 99.738585c-6.466272-2.931772-13.346983-4.364401-20.180622-4.364401-11.637038 0-23.137976 4.152577-32.232099 12.120039L257.281691 309.541939 112.687502 309.541939c-27.004027 0-48.895617 21.89159-48.895617 48.895617l0 309.670875c0 27.004027 21.89159 48.895617 48.895617 48.895617l144.758941 0 230.650147 199.690018c9.063423 7.846712 20.473287 11.930727 32.013111 11.930727 6.881734 0 13.808494-1.452071 20.312628-4.423753 17.407462-7.954159 28.573779-25.333992 28.573779-44.472887L568.996109 144.271848C568.996109 125.07974 557.768393 107.663068 540.2893 99.738585zM520.100492 879.728152l-244.427942-211.619722L112.687502 668.10843 112.687502 358.437555l162.985048 0 244.427942-214.165708L520.100492 879.728152z" p-id="17143" fill="#2c2c2c"></path><path d="M666.835438 391.034974l0 48.895617c44.99989 0 81.492012 36.492122 81.492012 81.492012 0 45.000913-36.492122 81.492012-81.492012 81.492012l0 48.895617c72.005964 0 130.387629-58.380642 130.387629-130.387629C797.223067 449.41664 738.841402 391.034974 666.835438 391.034974z" p-id="17144" fill="#2c2c2c"></path><path d="M797.223067 258.902608l0 55.969733c68.485791 43.321668 114.089431 119.517047 114.089431 206.550263 0 87.034239-45.603641 163.229618-114.089431 206.551286l0 55.968709c96.519264-48.030923 162.985048-147.386792 162.985048-262.518972C960.208115 406.306796 893.742331 306.934554 797.223067 258.902608z" p-id="17145" fill="#2c2c2c"></path></svg>